<mxfile host="app.diagrams.net" agent="Mozilla/5.0 (Linux; Android 10; K) AppleWebKit/537.36 (KHTML, like Gecko) Chrome/127.0.0.0 Safari/537.36" version="24.7.5">
  <diagram name="Page-1" id="6usjgxNvZxFZ0dSEu4bI">
    <mxGraphModel dx="4427" dy="3253" grid="0" gridSize="10" guides="1" tooltips="1" connect="1" arrows="1" fold="1" page="0" pageScale="1" pageWidth="850" pageHeight="1100" math="0" shadow="0">
      <root>
        <mxCell id="0" />
        <mxCell id="1" parent="0" />
        <mxCell id="J2wswKKLNROkd635R2GQ-15" value="" style="shape=stencil(rZfbbtswDIafxreEJOpAXXfdexRouhjLkiJNd3j70fPUWVT9YwN25zj6zNNPSpr47uX48HyYgnu5XS+fD9/mx9tx4g9TCPP5eLjON32a+H7iu6fL9fDpenk9P66/nx+WlcvTl8vX5QvfV64mirxQwf1Y3/hEXn69+bgCp/m8AYSp9IBQrPvrcyXnu/VMEXw/FutQJvb760OiJH0AQj7vA+pP6f0Rqg44ZP3PkXJB30/9es1YBQEHR6UHKq4AVyqhBzIlBiVQC33I1VMGNSuVarExRGBBHZDYAYXJIUCr3MdQAhXgUhVyeQCALhQozgISAFApZBuDB8JQ4HcSN0DCFqrJkoorYqBaIGOXpG+eolpKEIhigYxiECsNBSpqByE2ac24P4vthwVAFgq5agGHsqTtMsQAW1odqBYISHzZDo2lcKCnF4At4LGFUa0JNVBuIW7ljaRRWojbBsKAHQKhTao9acQ6AKgOdah0aB2yB9hKMzG2IGIBAWr1zjWtbSoXUeW0qQdtwA6qrSM36osY8NkC8j8B8VR6QLSngDayJ+mzpJucA3nVTS72wCbT71dCWmXfTBS4pWjPmxhwHYZC60EA7dP6/b4dOEOx6sGITcipzZ33TybZbnHaPqAIxVHoxY0zqjX1vVJT83BvAFQTgJYdb+rcK9sHGLECJqcKJDRXpY2sN4DbaN7d39gC6Ly6WBALVDQmh4OJj03ru2NyAAQDbhQSGsSlnVs2AONRP1qAWcoU0wCgSuupYnQJA/92kfkLQB/+3Jue5tNpvXZt/7f3LH213tH4/ic=);lineShape=1;strokeColor=default;" vertex="1" parent="1">
          <mxGeometry x="-1082.3088168934428" y="-1454.0592509560302" width="83.35816349553095" height="96.1450582301428" as="geometry" />
        </mxCell>
        <mxCell id="J2wswKKLNROkd635R2GQ-16" value="" style="shape=stencil(7VjLbhsxDPwaXwlR1IvnNP2PAHEao2kcOEkff19uDdkrrnfSAD20QG/rtWbFxwxJaSNXz/c3T9tNDM8vh/3n7bfd7cv9Rj5sYtw93m8Puxd72sj1Rq7u9oftp8P+9fH2+PvpZlo5PX3Zf52+8P2Iy0pBJlQMP45vuFCsv958PAIedo8zQCpU8wA4feHiehFK4/pGidfXx0BcvEEa1gFKLQzrJZKADTK18fuZiYHDlWoc1pdKDOzhRFEHQE0kBXgsxDwCIrUIQhqJnUlCBQGUahsAUxaBD8l8GE2yrAnYIVlUxyxbGBLaoVAbd+DYjbwMqAuicmfiGiClERBgWFOjEDwgoB0alTGsSgm5oN4iJU6AqYHiQmrAHiNy8OsjcNjWV3XrC5ByjhciGoHDBlDHCobayULiUhApAHEaINURIF0cqwBHo0SsAFA6aU5SSKTA6ZJJx6gaExnov6rXTmUqAKCNdNSOxv6JywClPNY8lbcAOkZJMwVkkvaYnACFBCTOAK6saqUCxGAAHjNtYaiArfa3OJMsDIAaZoDrVJNXKEqFUnkXIHcD5iYhp1N3ce402iEtomRhRXmQ3lxniUP9eQK4KGWoaTNJHFuNfEBABvA7GL2RD9mPAAZAmjYXq0scd0mtUcMPPVaXUOKsNSwAGZmkXS6zKCUMaK6ZJCggDsH3NwucYsn5LSpFJDldSM5EiJxonZwzQQgikyViAYCVrPgeN4vDKpsWIq2obhhfFzahPv1ugA2QOppUC+zUJfhSZr0ejgLBF5rYYJT+xvmt+sb7f377F+Y3d9r70/MbL4haYE2yrIVRbBJ6nNfOPsGdKEMfny4fx7KfrqodekEebOIMow/NqAIAliaXaQMwoN6pX55OlFaHwfpFK0lvULXT5lReKrSHaz8yn6mNZjcR33lwkT+be16PUlbYTwwVzjAl9koyu/VA35eez5n0gf223k2SJmXGG7grgEnKyAPxzd+kjIrFtIPTvsAjQBE/8piUBQe1OUCmCE4lBnBZNgAa0C3N/jhp0zDgnTXasritgjVY/XRhgIxq8Hsv6H4DYA/n+8C73cPD8Tpx/r+/P7RXx7tHuf4J);lineShape=1;strokeColor=default;" vertex="1" parent="1">
          <mxGeometry x="-942.6222091903692" y="-1405.1264418638611" width="56.63206634160323" height="42.761248748036756" as="geometry" />
        </mxCell>
        <mxCell id="J2wswKKLNROkd635R2GQ-17" value="" style="shape=stencil(7VjLctswDPwaXzF8guA5Tf8jM3FqT1074zh9/H2haiiLkLyenHrJTWGwIh6LBaxNfHjbPb1uN8G9Xc6n79tf++fLbhO/bELYH3fb8/6iT5v4uIkPL6fz9tv59H58Hv9+fRosh6cfp5/DG36PuODIhQEV3J/xJFLJ/w6+jvaH/XFun6nWzt7rSbwNiI4q9xcECgkAMknvUXbE6IZCrr+BhQTEoDcE6QASm5PrgEC5D7omKjhon3uAZgkEHSrl1AM0KgQQSq4HCAYwyQIgBQCSrUNVJx0ABGJnAVIBwFHos+Sd0hFc4QtVv7gCRK3kLIsgkgeAuJIm1BBe2Vxs5UQAwFMwLmlpAPu8o2Jc0qhQ0K55PKMrg7Qql3rySaIKQlAe9FXgiSu3qsBGZKSdrAJSbjSYmKE+gipIaZoyiQYl0KBSW/82+wRVrAZKwdgLstcAovHHA/+VM6Eae8QJJaVRVYakG9qkZ6mQB22g9tWQFLaN2vueEkpCxgHn/gLtiwI4qhmNBhAgJbRkJVkArJlrAjoDFJBUWcYQmpPrgImUs6CRpGof2j5wTffXAZGiUSPyqA8icV+3AvVUHeKep0yM7NlKhUoBSqlYnmojoSJ7WwKsRCqEXuz7EevYTv7cDm71ZRKTn4z8qcRs8s/g/bMBeW1kKNXat31C/TR1b0XgFxyN6AZetD5e8D4MyGJJpEsqan3d10pfteQgjTSJrp+YOtHgviZW34dWRVvt6kYIOvNzI/zcCP/fRqhZsi7haav7WTQ7ZGwEXgcsNjDWUYWkr7SOnKTYw3k+1KHPUowwS2xngwblQd2crfP02/iGuVFuPKqc3XciXKiUQ0YjKSPFsxu5DlIQarJTxJGAnuHm6tU8AGGpVkzv9LxfeuPudHAy9hHZs62Ug7qozBQz0NpUv0V9Q7QAl6gPf6O5a68P1w9CL/vDYfyeNP+//YCkR+PHp/j4Fw==);lineShape=1;strokeColor=default;" vertex="1" parent="1">
          <mxGeometry x="-850.6165525551569" y="-1424.345482453374" width="21.508714436218575" height="44.54121748875461" as="geometry" />
        </mxCell>
        <mxCell id="J2wswKKLNROkd635R2GQ-18" value="" style="shape=stencil(lVfLbttADPwaXQly3zyn6X8EiFMbde3Acfr4+1I1ZHu50RS5yfJwl+SQQ2qKD2/bp9fNFPjtfDp+3/zaPZ+3U/wyhbA7bDen3dmepvg4xYeX42nz7XR8Pzxffr8+zcj56cfx53zC74tda1R0tgr85/ImU0r/Xny94Pe7wx2+FGrc4ZVKW8enRLk/XxJpWTcIgaR0BkEo8bqBCHHvUWjEARhkKrUziJUE3BAj5dYZJCVWkCShkDqDEknquoHG5bzFoGZSFDSzj7opNRB1tSxKT1ymCq4oFHOPV1LENOU04BHR1AZ8AUk1/6PHC/CHKTn/G2UQ75BQrVQF4cX5XyBlPMRblhNW8sMOnylHUKVU2OMF4DPFvgvUGhPUaPV9aeczyH+jqh6fgD9iBFSfIAYEmEFr3qCiG2SgrC5Fu3qD65lGERhYxQ81yhnlyInj3AOwJ3XsMcixC/hON1aKKA4ONcQBteLxERQRUw0+oRUklL0uGmNIhAwfPV6ACPEgWiZ74HwZCMtLRCv55OzxAcSbqI5NCUTxs3gb3+p6Rpa2+7ii8zIar3PGZAgY2N/BjTKlBAxy8DGYkxkNjuSFIgspICFR6mOOjQR0JfscWd8h/LxQ9CxLhW1v96tbipgC6GNbKLRnIVEBZdRsGPR9hs9vVym/4RmdX/ywwbJiW6brY4azqV1L5oZPgGFlz4ApNyDAit5tdLII38d4W0p7/wNcMQ3vlo8AdxvDu2UrQhky/93oS4vwreHZ4wuQdR2WoQwX3s9+Rfwfbw+3T5aX3X5/+eK5/99/4tiry+dRfPwL);lineShape=1;strokeColor=default;" vertex="1" parent="1">
          <mxGeometry x="-775.4402843096395" y="-1431.8392853783894" width="30.026765914390886" height="66.51595145771807" as="geometry" />
        </mxCell>
        <mxCell id="J2wswKKLNROkd635R2GQ-19" value="" style="shape=stencil(7VrLchs3EPwaXlGYwfvsOP/hKssRK4rkkpXE/vsMwmBFNHZb4SFVOehGiejFYB6Nnlmewodv95++3p3Uf3t5fvr17s/z55f7U/jppHp+vL97Pr/Yp1P4eAofvjw93/3y/PT74+fL318/9ZX9029Pf/QnfL/g1LvSOkr9j8t/sgv69z9+vqx/OD9erZfsUp7WN1cLWa+ulGm9RJcJoLhWp/UaXMjH64Mr8/pQXEzEIFfn86bgKn++zP6p1EHVxfn5JbsSiT3RtYIAIRvYCZrOFhXnAwHY8+DI4pIQQEEfhewqM6mMEG1BS+MRR4BYEKAkCgbIYQZEV7hJVREQPAFU5yMCqFur0yVTGwckXQDMS9WVhCYp36EtgMwi3UaqXcVB2A5tGHAFKKTcDPCP1zdAdpHvgIDihBRQNykhoPIdMlCG7UkoKYjzc7am6BIJXLAwzbmU86DZfUAZXr+qaUarZnGdKy6rU5LeUZHHklIei3HQ6ABEcZmUaEyjIDe36qjyfYBR/RzpEAZ57gPqSOYrkwJJvtiwRC1wjIyTdx5uwzaM3AcIskaVcSHtA3Tw3AbINL07oCGgEbfu7GC5REjAAAKAStPbDt3ApM3RRwC4pA1Q2aEFqbJ5ynwGABIwAKMZi3TLNwKANd4yaXvevz20PU9ucqtl63zoHjgCsHqA+6GnBk9vSL7SKM10Upm9lBPfIQzq3WrauJCld1gEot16LL0jqhnTsJWwRsqDejeAiUDCfKlhtooJIpIaxtXA3l1rkNTIq5pplL1LQKo0QCReKnUxKTlPDl090r0dWtkOy5UlnuqlYokwR1pk1OA+YJHSXe0zkwpqjchvoBqczofukSFeMo5AqkxUa7Q2brSNZiKNtAFAGRuAaY22sdAGSPTQBgC3tkzPIN6IafZrM0+TQPQtgO8rJVcDFDhEo2rdvoa+rDuO+1UWQCO00ZYKenXcESClxSQWiIps3I0ktGEA8ehWmn3WBM20YYGLLL8NAIHLtLfsJkG6Jh6HOqj0Kr8rYYG2qMReQfzQmHzRCYt0Q3lvAOW5lBZAJrdiT++KXlIWaUu1iHFg9L1fo57bhIqpjE0PiQYCUak27m6CUzc6y+mBWAqCtU091HC1v/rhMJuWImWzkJsBdY21H2W7DzBxDBMja4MIb5Q0yHe75iyb2AwuYBukfvQI+4C8yD4+JPODJLbGbKi6/fWK601ssPGPiY0ys0bw3EeLYAp8sGEXvyyAxDScYHbrG/1ARf2jgcr7lLHjkEap0gB+MYlJgWRHBMFUaa72Qcmcq5lL4/f+eADe++P/pj9mA6Zb+2MDwCVqHUIkZ+gzr/kMxdNsjQV3sBpk2RozTmij0hGWAUD+hExlaN9h1hox0s6vfz27NfFXHNHjNW2swQRWn5/OO3Q+ZwBd3rp4qu51U9pXZ2AtTX9jAfNTT++H95co4457f4myAv6HL1HAraHSAZMWnBclPmBSxUuxKGUNSQvdC71QCkq+PrsnXKzYHBtnMHm1dFhJ33g+8GoIrpBqy2P3Te7xV9Mio7S2K3ro/COHQiUE2l31JmEmJM/rYFEAvBezr3PD9SyDPNrvOXvJaj+lR0HGFqpH7GuYQQm/cwR/a6E0H3TpMAJ9AaeLiox0yNDthz6SDgC6O+DOHBOvo/Ue3oKO6dJRfG/67crb6+3D6w9lvpwfHi6/s7n+Hn9YY/+6/CgnfPwL);lineShape=1;strokeColor=default;" vertex="1" parent="1">
          <mxGeometry x="-605.8306800696346" y="-1401.8486326447448" width="171.4237592073035" height="58.43045838489805" as="geometry" />
        </mxCell>
        <mxCell id="J2wswKKLNROkd635R2GQ-20" value="" style="shape=stencil(7VjLbhsxDPwaXwWKep/T9j8CxGmMpnGQpK+/L1VDtjXrHSO3Au3N3uWsRHI4pLQJN68Pt8/bjcrr28v+y/bH7u7tYRM+bFR3Tw/bl92b/dqEj5twc79/2X5+2X97ujv8f77tlv3X1/33/oWfB1xwUTpI5dd4kPXPg08H88fd02RewFxdyuv20fkw2Sdxgdjb9+tkn4trxN6La3FeILkaCKC46mcPsgtlHaDFJZ0AvjrPXChOKwKUxSg73+YtWdj8OiDZ6zI7nV0jPmQL6xylkpyXdUAJGKUq4xMXAafXx8Q114gP1XxIM0BcrBQQKwI8oaoBKnDPtpQIIDmVBYCE1QBp4YNnPhg3CwJY+dSM9ZM9pYYBwgJQ2Jayi+CDVTQpoA6Y2WrsClcAsKXIE2c+CAIqj5IANSwzhN49DzO9s32CbKm0oRFn9C6sgKorc5RsTSYz1XR39qFFqpTNY6btSSYrtOTi7EPhqtGKk5kaJt6RkM8AIGSxjfayBoCajtUlIjMGgAKK1h8I+VrFKBkgcwBQowNYHtoQ9zMfhK3QxgbOALlRQF2ENRGAF3ECSiYus8y10WWPAH/N6wItSHlcjQnQqG30ICVnAAkIuJJqUOPEdcYAIBt9BaKVxr6cEMB0xgDBY5QKaUG9ggTzUPkKAmG1TswSV7CjGJkKi1JB6YvHElkDlAW/2bBhefCLoqYFUTEPHcDp7RdFXZn0NRz6zIfIhMlqVDGsyldoQD6hU2IHzCpg1Ai8gN4JqKgaNtUFVg+KNX0i/OUmp6NcjqPxSaou99GMBVGPBL4MWDQtmwVYyf2zg2hGwP9B9O8fRK2CwryCneSUCFM/yc01aptkJzlLU5ujVDmXeocCH4S20RidzisE02eyJTuhwzCtkd5SqM0O85b6xQJJnMpiTBQ6THujWkOnM3G6DKYd88appK7O1WCJjEQzZAjE+RxAHBCU7qA0QouJMtBrFsGxROnsJjgB6Ciktc1DG6GNTfDSyh4Q6fLYQYR2co+6JXT896i8vAEqni5knLFWzOFsIfSkoHh75kciVm7nPNxsjZPJinlAEhQSmXdfRV4xtx+nW8/73ePj4dL0/D3ektqjww1r+Pgb);lineShape=1;strokeColor=default;" vertex="1" parent="1">
          <mxGeometry x="-327.1853407599151" y="-1378.5860457242068" width="114.88811921826255" height="52.23220339282307" as="geometry" />
        </mxCell>
        <mxCell id="J2wswKKLNROkd635R2GQ-21" value="" style="shape=stencil(lVbZbttADPwavRI8tNdzmv5HgDi1UdcOHKfH35euIMjiRlPkbb2e0XLJ4XAHe3jbP73uBuW36+X8fffr8HzdD/ZlUD2c9rvL4eqrwR4He3g5X3bfLuf30/P0+/Xphrytfpx/3r7we+KVRFZuLOU/046Qpn8bXyf88XC6wzelcY3PVMZtvDAT8/qARpXBCUJiK8KolG2bUJS0rkOqVHSbYDmG1JwggDBSkjWhkWRAEDKOhATS5FnMLRIquLSXSUoktAoK4YXWjtBAHajkLiJwhUScuisXEBCVLkUC4nEdhXi8aECpTNoiXsH3lWytolaoghpnEo74BEQkQlwiQcEB4p3VEZDq/AqpdSeAVtNCzSLBQI7MW22MhAJOsF4Vdc7bZm+WSEio1RJp15uMmlnnTrwjjMAutJJ1ykaep0ZcI6Ehk/QyBRNebHNLTP0lGrh1prHzlwzswi23+74BP2IaO0tt4ALdVHD8CFL0WbzLIq3tImMdJaO0PsHHTgL+kiUKT3CV/YTgSG4YIKU+dXjt2Ipbx+YKLaMc9qZR7UY/av40j+EZz1ByVqPmmBKQnOc7DE2eNz7G53lCLngB8SShKgGPjCJlajniQTwuiFYjHuQz5zkdC17BwCzeYxGP3hTF4lON54J/jP/kU/D/eF8s786Xw/E4PVvv/4/vVN+a3rj2+Bc=);lineShape=1;strokeColor=default;" vertex="1" parent="1">
          <mxGeometry x="-58.36111595703733" y="-1437.5572306883175" width="9.660075189703246" height="122.6964974958249" as="geometry" />
        </mxCell>
        <mxCell id="J2wswKKLNROkd635R2GQ-22" value="" style="shape=stencil(7VrLbhw3EPyavRJ8NR9nx/kPA5YjIYpkyEpi/32aWXA8rJ4pIUAOOuxNHnctyX5WN3lJH77df/p6d4n+2+vL8+93fz98fr2/pF8uMT483d+9PLzqX5f08ZI+fHl+ufvt5fnPp8/Xf3/9NCTHX388/zV+4fsVJ66EAYr+x/VDcKX9++HXq/jjw9NOPLvmF/Hikj8XT6639dfF+cLkfVrkY3c5ncsH19ft5DpXPJFPsP3sfGbyUhf5GueXM3lB+UZ/P6/6qaqBTvffUZ7pP7hYUD7T/YeI8kL06V2vKF+IvbxrwcgHJl/M7wv9fUlGP3T/2cgHon/vkrFvJ/7s0d9UvhJ7eRc7yufI7FXBvuohRD/J1Yz+X8h+NLpXeZEZcYfyfSaPTV49nPmzHm89gGQXWMBrAlotULyrQgDFALqrxOVCcwI+Wl0hNrZO1wJ1ipHlVq22zS7HAHF1DcsWXWSA5jz4naqBxIEaLkBibC4Rx9MVOnhGo5klVtfWM2R1FnYG9b3VDjm7SFxD1QqW1mJAD73lwu0MlWYjrX7grdXTcNNDQ/1QwwVy6KR2XQOoqZaIe6c689UO0IgdcpgJaAPILLrHgIw1VuOB5bBcZrjsI45xCqOlIrTKKqBkBCSiVgVg3hNqh+E5sCVVA0lkWSMuGADTUnOhIIAarmE8jBWItyogCx7ac4C1QyCJTAHFABI/g7UDqz8DYFZofEsIKLSgDEBCQCKWFq3RUB8C5RgKABJc2yzzx4Aww2UL0Tx5xymgI4DRMDG8oXFvlaOswVxDAdBXKIBqyVBhBQhfAbiJAljrogBMlTJtfwaAbqRthfjM0s2cgdU4BVRzBmF28NOue7WSmFaAmBU8CVEFZONLja0QnV/TjNY4lu4lzTK+Kygsa0jGrkELSmAAJTsQ036yj2NAdwloaKNco0STKjUtkC0Vu6U8e7NDwGgUIHuXucljQEdvHdmbpBm1q3g8A8t8raJ7qykzyUvN0FDlfEJ8SX2zdwSwzDeI8wrQBoVR6WYNV7mWBKto87Sg9IDsvnt6ht6RL/VKC7sCgEr3Nvv2MwCQdQVk1gN5j5ZTBGuzxhKrIfRL4IfoEQHMmfS/q1mBZeOhV7NC54C8AnZ6OENEuwRJA90E6TAm86aGMacAIf467GQALDN1w8n0C1WToVj6hVXqcYaCANa+Di2tCX9EBDt0x9KuAKrWjoM0BVS+gtgV2KH7gZbYqHF4TkAAm+0NQEMAY33HUf2GXvua/Ibi+CFaRgBjQN1MjMZPcL1mkwbYyHe4v1nhjUN7s0L7XwFaQUCtgWZ8LdU4FvD00C3M6c2OPXRWSCMSfGVdrAcfdRFKdZ3D7zMyEJoBsFJtR0yZ8sTBbNctKU1jlbeatKFkgNXFMf0HJtrofFy1Hk13yXo/3bGveAY2AVbqapkoC1GpGNOFjyuVTcOlQNn4xBlfh55DG15GXW8N7wTcGt733/COuTVcSnFunA2H0zzCaOUY9UHW4GTjNkGdgNsE9f1PUHPFWUj1/AxiriA65dI5TiVuMV2opVN1ERjZNtY6Bph0rxQu8+ssuGpuabLAY0BCvjS0xK4VI8aDlnq6pegKULgyy+QxQAv7ygRyoBEXq+F8kQM6Dk802zItJY81TvhoQwHIjBtN99E0o5ru2fRRLR0Mm6EXl/GgKLIthT7DZedLzNKhYkGp/LY2CM6kqqcPL0Iy48pASWIIeGjlmZ5wjY7TyjF8JDuqeCuv0cCeHuVJgvd5khnh9jTo9jRokX9fT4PMrKckOpTwOOD6SflO/AEapPGGhBUPnMaGTLuXhPoXOvfMmHQ9TT8Z672nzywy3g/xmxJzs6LGY/wGk61/I1PBjI0PqWWm1Z04a6CwoPr5NOhEPOFm2LWW4JMbP9PcibigOOu0xPgYJXGCTVDg95D/7ansm+L6x89XuV8eHh+vj3r3/4+vePXT9QVw+vgP);lineShape=1;strokeColor=default;" vertex="1" parent="1">
          <mxGeometry x="111.60437280591486" y="-1447.4850835713773" width="266.78827367673046" height="151.5655417045351" as="geometry" />
        </mxCell>
        <mxCell id="J2wswKKLNROkd635R2GQ-23" value="" style="shape=stencil(lVbbUttADP0av2p2pb1YzxT+gxlC4yFNmBBo+XvkcW2sTX0ob87mHI1uR1InNy/7++ddx+Hlcj497X4PD5d9Jz865uG4352Hi311ctvJzePpvPt5Pr0eH6bfz/cjcvz6dXobLfyZeNpTCiOLw/v0EkOgMD3dTYzDcFwzInF2jF4p1m1CzxTVEyL1ZZtQKvXJEWqk2G8TcmiDKJEKiEGExLuUEymIISpJ9ASmAGKIlIoPoRALwgfx+EwV2A9UmhTx/LKBb/y3JDPIkPWAT1CxlwjxvgLZagziNbxvoiSUoX32+ZFMygif2eFZYc8FUu8/m31YX2nsJyrAn0jVx8sFqsw0c+W/gvoyJY8Xsw/xJbT5Lxnifb9ZfZFgmLKP1/onQvvi62v9KaAfuO036/8K8LGNd9SXIvzfkbbWL+y32uhdSEG8NrEaPSqcD0v2FvyS4S19+X6wAVewfj0+WbxwnjT+SA/rdRWvWEWgHqvPv+lFwQpYFsRKjxUN9O/ibQF4AeAtaRsmebwp9IsV5gPuKYN+MHmotx+xYGwLs7YZ7UHEtudTU2KTGJCAnRLF1zjFuepbBPWiSTyPyX8TtI0hZeySUvZZtTxH0NZGqM1hkL9yqamDCRMu+nC1KkfpozTpPGnXswhVbll1Sy8JXN5GKE3z6XyPbBGadaM27sA4NUL0QWuFF5r1RjNQRydR5b5/yP4Hwz4+L+fH4XCYDu/1/+2lbU/TlS63Hw==);lineShape=1;strokeColor=default;" vertex="1" parent="1">
          <mxGeometry x="-1253.3457424791482" y="-1425.6935766978638" width="128.01119665337978" height="6.544791540587767" as="geometry" />
        </mxCell>
        <mxCell id="J2wswKKLNROkd635R2GQ-24" value="" style="shape=stencil(lVbLbttADPwaXYkluc9zmv5HgDi1UTcOHPf196UqKDVZaJzc5PWMxCVnSE5697p/eNlNkl4v59PX3c/D42U/6adJ5PC8350PF3ua9H7Su6fTefflfPr+/Lj8fnmYkfPTt9OP+Q2/Ft5oVGVmSfq9nHBKlNLfo88L43h4vmL0TMKO0ZmkbRNqI+2OUDvVsk3ImWpyhJJJQUjClIoj5EZjbBOYesAPyiAiu2D1+A6vnKipx2dq4P2J1BdBB0lG+NQ8Xkgx3idULJ6K8BxE0UhAPhNlf1+2DAjCdx9/WRO2kf7swxHqIHqhFOEKghcqwxeLFNRWKXk1m5gZwbOXGmcofqWaffC8Juud+EEFeMXi8VLWCqWgxF46WWA8smbjyoqCvEvJx29WRFLjmE+z4oDSHyH+Sgyln0M8b+bfsoqXvt6yerSitUegH8P7evGgBvHq889yw+rN4xtxh50wXJcKeLtpN1oR9c0Pwg0f+hQeXXMX9t4t63W2JldoDdxXuW7NxjBNrTugao3+3+TK0L5GKGEUFRogR2NQCrOo3yKEblt0HU9bhDDtil0af2F4Qi2wblcryZtKmSrQ3fwJn9fWSYEt50v4kTTXEvShOU1eGyPBJcUIoZOODMeYlTq0djthLCYOhIG/8OHl7z0Me/i3bT4djsdlWb3+P26ndrRstnr/Bw==);lineShape=1;strokeColor=default;" vertex="1" parent="1">
          <mxGeometry x="-1235.9711463765098" y="-1226.497160453564" width="95.22964537558173" height="7.4020767919842" as="geometry" />
        </mxCell>
      </root>
    </mxGraphModel>
  </diagram>
</mxfile>
